<svg xmlns="http://www.w3.org/2000/svg" xmlns:xlink="http://www.w3.org/1999/xlink" width="375" height="370" viewBox="0 0 375 370">
	<defs>
		<filter id="prefix__b" width="115%" height="115.2%" x="-7.5%" y="-7.6%" filterUnits="objectBoundingBox">
			<feMorphology in="SourceAlpha" operator="dilate" radius="1" result="shadowSpreadOuter1" />
			<feOffset in="shadowSpreadOuter1" result="shadowOffsetOuter1" />
			<feGaussianBlur in="shadowOffsetOuter1" result="shadowBlurOuter1" stdDeviation="7.5" />
			<feColorMatrix in="shadowBlurOuter1" values="0 0 0 0 0.938738567 0 0 0 0 0.938738567 0 0 0 0 1 0 0 0 1 0" />
		</filter>
		<path id="prefix__a" d="M30 0h281c16.569 0 30 13.431 30 30v276.188c0 16.569-13.431 30-30 30H30c-16.569 0-30-13.431-30-30V30C0 13.431 13.431 0 30 0z" />
	</defs>
	<g fill="none" fill-rule="evenodd" transform="translate(17 17)">
		<mask id="prefix__c" fill="#fff">
			<use xlink:href="#prefix__a" />
		</mask>
		<use fill="#000" filter="url(#prefix__b)" xlink:href="#prefix__a" />
		<use fill="#FFF" xlink:href="#prefix__a" />
		<g mask="url(#prefix__c)">
			<g transform="translate(41.484 -93.195)">
				<ellipse cx="128.186" cy="128.559" fill="#F8F8FF" rx="128.186" ry="128.559" />
				<g fill-rule="nonzero">
					<path fill="#1C1C30" d="M94.584 56.583c0 1.379 1.115 2.496 2.488 2.496h.005c1.373 0 2.485-1.117 2.485-2.496 0-1.38-1.116-2.497-2.49-2.497-1.373 0-2.488 1.118-2.488 2.497z" transform="translate(60.567 177.237)" />
					<path fill="#1C1C30" d="M129.947 10.698h-4.278c-1.477 0-2.674 1.198-2.674 2.675v.386l-7.018.714V6.954c0-3.834-3.118-6.954-6.952-6.954h-58.1c-1.477 0-2.674 1.197-2.674 2.675 0 1.476 1.197 2.674 2.674 2.674h58.1c.87 0 1.605.735 1.605 1.605v46.538h-5.625c-1.475 0-2.673 1.197-2.673 2.675 0 1.477 1.198 2.674 2.673 2.674h5.625v3.745c0 .869-.734 1.604-1.605 1.604H26.672c-.869 0-1.604-.735-1.604-1.604V58.84h61.498c1.476 0 2.673-1.197 2.673-2.674 0-1.478-1.197-2.675-2.673-2.675H25.068V6.954c0-.87.735-1.605 1.604-1.605h5.812c1.476 0 2.673-1.198 2.673-2.674C35.157 1.197 33.96 0 32.484 0h-5.812c-3.652 0-6.654 2.833-6.929 6.419h-6.375c-1.05-2.51-3.53-4.28-6.416-4.28H2.674C1.197 2.14 0 3.338 0 4.815v17.118c0 1.476 1.197 2.674 2.674 2.674h4.278c2.887 0 5.366-1.768 6.416-4.279h6.352v42.259c0 3.834 3.12 6.954 6.952 6.954h45.496l3.717 35.052c.476 4.485 3.844 7.741 8.007 7.741h10.695c4.423 0 8.021-3.6 8.021-8.023V69.54h6.417c3.834 0 6.952-3.12 6.952-6.954v-18.22l7.018.716v.386c0 1.477 1.197 2.675 2.674 2.675h4.278c3.833 0 6.95-3.12 6.95-6.954V17.652c0-3.834-3.117-6.954-6.95-6.954zM8.557 17.652c0 .87-.736 1.605-1.605 1.605H5.348V7.49h1.604c.869 0 1.604.734 1.604 1.605v8.558zm5.347-2.674v-3.21h5.816v3.21h-5.816zM97.26 104.31c0 1.474-1.2 2.674-2.674 2.674H83.892c-1.632 0-2.537-1.533-2.689-2.958L77.546 69.54H97.26v34.77zm18.716-65.32V19.85l7.018-.714v20.57l-7.018-.716zm15.574 2.199c0 .87-.734 1.605-1.604 1.605h-1.604V16.048h1.604c.87 0 1.604.734 1.604 1.604V41.19z" transform="translate(60.567 177.237)" />
					<path fill="#FB2037" d="M88.32 49.926h7.55c3.866 0 7.01-3.137 7.01-6.996 0-3.857-3.144-6.995-7.01-6.995h-1.079V30.15c0-1.486-1.208-2.69-2.696-2.69-1.49 0-2.697 1.204-2.697 2.69v5.785H88.32c-3.867 0-7.011 3.138-7.011 6.995 0 3.859 3.144 6.996 7.01 6.996zm0-8.61h7.55c.876 0 1.618.74 1.618 1.614 0 .876-.742 1.615-1.618 1.615h-7.55c-.878 0-1.618-.74-1.618-1.615 0-.874.74-1.614 1.618-1.614zM57.248 42.93c0 3.859 3.145 6.996 7.011 6.996h7.55c3.867 0 7.011-3.137 7.011-6.996 0-3.857-3.144-6.995-7.01-6.995h-1.08V30.15c0-1.486-1.207-2.69-2.696-2.69-1.488 0-2.696 1.204-2.696 2.69v5.785h-1.079c-3.866 0-7.01 3.138-7.01 6.995zm7.011-1.614h7.55c.878 0 1.618.74 1.618 1.614 0 .876-.74 1.615-1.618 1.615h-7.55c-.876 0-1.618-.74-1.618-1.615 0-.874.742-1.614 1.618-1.614zM43.973 27.46c-1.488 0-2.696 1.204-2.696 2.69v5.785h-1.079c-3.865 0-7.01 3.138-7.01 6.995 0 3.859 3.145 6.996 7.01 6.996h7.55c3.866 0 7.011-3.137 7.011-6.996 0-3.857-3.145-6.995-7.01-6.995h-1.08V30.15c0-1.486-1.206-2.69-2.696-2.69zm5.393 15.47c0 .876-.74 1.615-1.618 1.615h-7.55c-.876 0-1.618-.74-1.618-1.615 0-.874.742-1.614 1.618-1.614h7.55c.878 0 1.618.74 1.618 1.614zM88.32 24.13h7.55c3.866 0 7.01-3.171 7.01-7.072 0-3.9-3.144-7.073-7.01-7.073h-7.55c-3.867 0-7.011 3.173-7.011 7.073 0 3.9 3.144 7.073 7.01 7.073zm0-8.704h7.55c.876 0 1.618.748 1.618 1.632 0 .885-.742 1.632-1.618 1.632h-7.55c-.878 0-1.618-.747-1.618-1.632 0-.884.74-1.632 1.618-1.632z" transform="translate(60.567 177.237)" />
					<path fill="#1C1C30" d="M40.101 14.978h7.744c1.528 0 2.766-1.118 2.766-2.497 0-1.377-1.238-2.496-2.766-2.496h-7.744c-1.526 0-2.765 1.119-2.765 2.496 0 1.38 1.238 2.497 2.765 2.497zM40.101 24.13h7.744c1.528 0 2.766-1.117 2.766-2.495 0-1.378-1.238-2.497-2.766-2.497h-7.744c-1.526 0-2.765 1.119-2.765 2.497s1.238 2.496 2.765 2.496zM63.333 14.978h7.743c1.528 0 2.766-1.118 2.766-2.497 0-1.377-1.238-2.496-2.766-2.496h-7.743c-1.527 0-2.766 1.119-2.766 2.496 0 1.38 1.239 2.497 2.766 2.497zM63.333 24.13h7.743c1.528 0 2.766-1.117 2.766-2.495 0-1.378-1.238-2.497-2.766-2.497h-7.743c-1.527 0-2.766 1.119-2.766 2.497s1.239 2.496 2.766 2.496zM40.656 4.993c1.373 0 2.488-1.119 2.488-2.497C43.144 1.117 42.029 0 40.656 0h-.006c-1.373 0-2.485 1.117-2.485 2.496 0 1.378 1.117 2.497 2.491 2.497z" transform="translate(60.567 177.237)" />
				</g>
			</g>
		</g>
	</g>
</svg>
