<svg xmlns="http://www.w3.org/2000/svg" xmlns:xlink="http://www.w3.org/1999/xlink" width="375" height="370" viewBox="0 0 375 370">
	<defs>
		<filter id="prefix__b" width="115%" height="115.2%" x="-7.5%" y="-7.6%" filterUnits="objectBoundingBox">
			<feMorphology in="SourceAlpha" operator="dilate" radius="1" result="shadowSpreadOuter1" />
			<feOffset in="shadowSpreadOuter1" result="shadowOffsetOuter1" />
			<feGaussianBlur in="shadowOffsetOuter1" result="shadowBlurOuter1" stdDeviation="7.5" />
			<feColorMatrix in="shadowBlurOuter1" values="0 0 0 0 0.938738567 0 0 0 0 0.938738567 0 0 0 0 1 0 0 0 1 0" />
		</filter>
		<path id="prefix__a" d="M30 0h281c16.569 0 30 13.431 30 30v276.188c0 16.569-13.431 30-30 30H30c-16.569 0-30-13.431-30-30V30C0 13.431 13.431 0 30 0z" />
	</defs>
	<g fill="none" fill-rule="evenodd" transform="translate(17 17)">
		<mask id="prefix__c" fill="#fff">
			<use xlink:href="#prefix__a" />
		</mask>
		<use fill="#000" filter="url(#prefix__b)" xlink:href="#prefix__a" />
		<use fill="#FFF" xlink:href="#prefix__a" />
		<g mask="url(#prefix__c)">
			<g transform="translate(41 -93.195)">
				<ellipse cx="128.67" cy="128.559" fill="#F8F8FF" rx="128.186" ry="128.559" />
				<path fill="#1C1C30" fill-rule="nonzero" d="M196.317 281.792l-14.313-18.62c-.445-.581-1.112-.951-1.842-1.024-9.71-.963-14.893-3.024-19.06-4.682-3.686-1.466-7.497-2.981-12.414-2.981-7.49 0-13.217 3.994-17.101 8.52v-.098c2.163-4.988 7.93-12.859 16.888-12.859 3.854 0 6.855 1.194 10.333 2.577 2.901 1.154 6.513 2.59 11.792 3.7 1.435.301 2.841-.617 3.143-2.052.3-1.433-.618-2.84-2.052-3.141-4.833-1.016-8.067-2.303-10.923-3.439-3.649-1.451-7.422-2.952-12.293-2.952-9.326 0-15.89 6.25-19.542 11.941-3.652-5.691-10.215-11.941-19.542-11.941-4.87 0-8.644 1.501-12.294 2.953-4.119 1.638-9.245 3.677-18.845 4.629-1.459.145-2.523 1.444-2.38 2.902.146 1.458 1.446 2.523 2.904 2.379 10.343-1.026 16.088-3.31 20.283-4.979 3.476-1.383 6.478-2.577 10.332-2.577 8.959 0 14.726 7.872 16.889 12.86v.098c-3.885-4.527-9.61-8.522-17.102-8.522-4.916 0-8.728 1.516-12.416 2.983-4.165 1.657-9.348 3.718-19.059 4.681-.728.073-1.395.443-1.842 1.025l-14.31 18.619c-.618.8-.724 1.883-.278 2.79.447.906 1.37 1.48 2.38 1.48h130.56c1.011 0 1.934-.574 2.38-1.48.447-.907.34-1.99-.276-2.79zm-47.63-22c3.901 0 6.937 1.207 10.456 2.606 4.08 1.623 9.612 3.823 19.347 4.91l10.308 13.41c-17.735-.382-26.152-3.73-31.833-5.99-3.298-1.31-5.476-2.178-8.277-2.178-4.905 0-8.266 3.681-9.66 6.843l-.037.076-.604 1.286h-6.8v-7.941c2.187-5.048 8.026-13.023 17.1-13.023zm-69.31 7.516c9.735-1.087 15.266-3.288 19.35-4.91 3.514-1.4 6.551-2.607 10.451-2.607 9.074 0 14.915 7.975 17.102 13.023v7.941h-6.801l-.604-1.286-.037-.076c-1.394-3.162-4.755-6.843-9.659-6.843-2.802 0-4.98.867-8.277 2.178-5.681 2.26-14.1 5.608-31.834 5.99l10.308-13.41zm23.487 12.351c2.921-1.162 4.53-1.801 6.314-1.801 2.29 0 3.728 1.801 4.391 2.897h-13.513c1.01-.38 1.939-.75 2.808-1.096zm41.434 1.096c.663-1.096 2.1-2.897 4.39-2.897 1.785 0 3.393.64 6.315 1.802.87.346 1.799.715 2.808 1.095h-13.513z" />
				<path fill="#1C1C30" fill-rule="nonzero" d="M178.996 257.595l.097.009c.088.008.176.013.262.013 1.35 0 2.503-1.024 2.638-2.394.143-1.459-.922-2.757-2.381-2.9l-.094-.01c-1.459-.145-2.758.922-2.902 2.38-.144 1.459.922 2.758 2.38 2.902z" />
				<path fill="#FB2037" fill-rule="nonzero" d="M119.976 215.485c-.69.06-1.333.386-1.787.916-.505.587-.726 1.366-.61 2.131 1.1 7.164 4.913 12.059 10.48 13.737-.128 1.003-.246 2.008-.352 3.015l-1.413 13.475c-.152 1.457.905 2.763 2.363 2.916.094.01.187.014.28.014 1.34 0 2.492-1.013 2.636-2.377l1.412-13.474c.103-.98.218-1.955.34-2.929 12.344-.152 19.88-8.023 23.652-24.665.42-1.851.929-4.008 1.515-6.41.185-.76.026-1.564-.438-2.196-.172-.234-.38-.436-.611-.6l1.043-.597c.628-.358 1.082-.957 1.257-1.658 4.636-18.45 11.424-42.98 11.492-43.225.23-.825.046-1.71-.492-2.375-.537-.667-1.366-1.035-2.217-.983-.899.051-22.217 1.591-39.74 30.1-.219.354-.43.704-.64 1.056-.322.537-.443 1.171-.344 1.789l1.33 8.182h-4.507c-1.063 0-2.023.634-2.44 1.612-2.842 6.658-4.475 12.907-4.854 18.577-.05.754.223 1.494.751 2.034l1.894 1.935zm34.896-21.091l-7.087 4.05c-1.016.58-1.532 1.758-1.27 2.898.262 1.14 1.24 1.975 2.408 2.054l3.675.246c-.293 1.232-.56 2.377-.798 3.428-3.83 16.9-10.903 20.238-17.697 20.52 3.893-23.478 13.746-45.28 28.821-63.756-2.316 8.542-5.476 20.361-8.052 30.56zm-28.473 2.241h5.851c.778 0 1.517-.342 2.022-.935.504-.593.722-1.376.598-2.145l-1.672-10.298c.035-.06.071-.117.108-.176 8.366-13.612 17.59-20.386 23.854-23.672 1.483-.778 2.874-1.401 4.144-1.903-9.131 10.602-16.624 22.454-22.282 35.267-4.829 10.936-8.241 22.388-10.185 34.145-2.89-1.184-4.44-3.717-5.271-6.136h2.714c1.068 0 2.032-.64 2.446-1.625.414-.984.197-2.12-.55-2.885l-5.453-5.568c.43-4.313 1.663-9.033 3.676-14.069z" />
			</g>
		</g>
	</g>
</svg>
