<svg xmlns="http://www.w3.org/2000/svg" xmlns:xlink="http://www.w3.org/1999/xlink" width="375" height="370" viewBox="0 0 375 370">
	<defs>
		<filter id="prefix__b" width="115%" height="115.2%" x="-7.5%" y="-7.6%" filterUnits="objectBoundingBox">
			<feMorphology in="SourceAlpha" operator="dilate" radius="1" result="shadowSpreadOuter1" />
			<feOffset in="shadowSpreadOuter1" result="shadowOffsetOuter1" />
			<feGaussianBlur in="shadowOffsetOuter1" result="shadowBlurOuter1" stdDeviation="7.5" />
			<feColorMatrix in="shadowBlurOuter1" values="0 0 0 0 0.938738567 0 0 0 0 0.938738567 0 0 0 0 1 0 0 0 1 0" />
		</filter>
		<path id="prefix__a" d="M30 0h281c16.569 0 30 13.431 30 30v276.188c0 16.569-13.431 30-30 30H30c-16.569 0-30-13.431-30-30V30C0 13.431 13.431 0 30 0z" />
	</defs>
	<g fill="none" fill-rule="evenodd" transform="translate(17 17)">
		<mask id="prefix__c" fill="#fff">
			<use xlink:href="#prefix__a" />
		</mask>
		<use fill="#000" filter="url(#prefix__b)" xlink:href="#prefix__a" />
		<use fill="#FFF" xlink:href="#prefix__a" />
		<g mask="url(#prefix__c)">
			<g transform="translate(41 -93.195)">
				<ellipse cx="128.67" cy="128.559" fill="#F8F8FF" rx="128.186" ry="128.559" />
				<path fill="#1C1C30" fill-rule="nonzero" d="M178.591 157.776c-.693-.502-1.586-.642-2.402-.38l-70.396 22.732c-1.105.356-1.853 1.381-1.853 2.538v60.088c-.671-.073-1.352-.11-2.042-.11-3.653 0-7.34 1.01-10.662 2.92-4.309 2.476-7.571 6.206-9.187 10.504-1.685 4.48-1.4 9.036.8 12.832 2.671 4.606 7.847 7.357 13.844 7.357h.001c3.642 0 7.323-1.01 10.647-2.92 6.225-3.578 10.143-9.686 10.257-15.968.004-.057.006-.114.006-.172v-52.105l48.429-15.638.001 29.833c-.67-.073-1.352-.109-2.042-.109-3.652 0-7.34 1.01-10.661 2.919-9.065 5.21-12.827 15.678-8.387 23.335 2.672 4.607 7.847 7.357 13.845 7.357 3.642 0 7.324-1.01 10.647-2.92 6.274-3.606 10.205-9.782 10.26-16.14v-73.794c0-.854-.411-1.657-1.105-2.159zm-11.835 87.472c-2.51 1.442-5.265 2.205-7.968 2.205-4.06 0-7.5-1.752-9.202-4.689-2.962-5.108-.08-12.307 6.425-16.046 2.508-1.442 5.268-2.204 7.981-2.204 1.372 0 2.683.199 3.896.59.816.263 1.709.122 2.402-.38.694-.503 1.104-1.305 1.104-2.158l-.002-36.783c0-.854-.41-1.656-1.104-2.158-.694-.502-1.587-.643-2.403-.38l-53.788 17.369c-1.105.356-1.853 1.381-1.853 2.538v53.91l-.004.113c-.037 4.385-3.012 8.915-7.58 11.54-2.509 1.443-5.264 2.205-7.966 2.205-4.06 0-7.5-1.752-9.203-4.688-1.385-2.389-1.535-5.334-.423-8.293 1.182-3.14 3.613-5.895 6.847-7.754 2.509-1.441 5.27-2.204 7.983-2.204 1.371 0 2.682.199 3.895.59.817.264 1.71.122 2.402-.38.694-.502 1.104-1.305 1.104-2.158v-61.428l65.037-21v70.103c-.038 4.385-3.013 8.915-7.58 11.54z" />
				<path fill="#FB2037" fill-rule="nonzero" d="M197.773 272.154c-.001-.005-.001-.009-.003-.013l-.022-.084-.02-.074-5.007-18.697-.014-.044c-.014-.05-.031-.1-.049-.151-.013-.04-.028-.078-.043-.117-.016-.04-.034-.079-.052-.118-.021-.047-.044-.093-.068-.138l-.02-.043c-.01-.018-.022-.034-.033-.051-.028-.048-.056-.095-.087-.14l-.063-.09c-.03-.04-.06-.08-.092-.119-.026-.032-.053-.063-.08-.093-.03-.033-.06-.065-.092-.096-.032-.033-.065-.064-.098-.095l-.09-.078c-.037-.03-.074-.06-.112-.088-.032-.024-.064-.046-.096-.068-.039-.026-.077-.051-.117-.075-.036-.022-.072-.042-.11-.062-.036-.02-.074-.04-.112-.058-.042-.02-.085-.04-.128-.058-.034-.014-.068-.028-.103-.04-.048-.02-.097-.036-.147-.05-.03-.01-.062-.02-.094-.028-.052-.015-.106-.027-.16-.038l-.09-.017c-.055-.01-.109-.017-.163-.022l-.1-.01c-.05-.003-.101-.005-.153-.005l-.117.001c-.045.002-.09.004-.135.008-.047.004-.094.01-.141.016l-.114.018c-.053.01-.106.021-.16.034-.02.005-.039.007-.058.013l-.044.014c-.05.015-.1.03-.149.048l-.12.045c-.038.015-.076.032-.113.05-.049.022-.097.046-.144.07-.013.008-.027.013-.04.02l-18.447 10.26c-.018.009-.033.02-.05.03-.048.029-.096.058-.143.09l-.087.06c-.041.03-.081.062-.12.094l-.094.08-.095.09c-.033.033-.066.067-.097.102l-.074.086c-.032.039-.063.078-.093.118l-.062.087c-.028.042-.055.084-.08.127-.02.032-.038.065-.056.097-.023.042-.045.084-.065.126-.018.037-.035.075-.05.113-.017.04-.034.08-.048.12-.016.042-.03.085-.044.129-.012.037-.023.074-.033.112-.013.047-.023.095-.034.142l-.02.109c-.008.048-.015.097-.02.146-.004.038-.008.077-.01.116-.004.046-.005.092-.006.139 0 .043 0 .087.002.13.001.042.003.083.007.124.004.05.01.1.017.151l.016.106c.01.055.022.11.035.164l.013.057 3.988 14.895c-2.096.125-4.245.974-5.971 2.375-2.028 1.644-3.182 3.813-3.167 5.948.012 1.678.742 3.173 2.054 4.207 1.137.896 2.616 1.37 4.279 1.37 2.26 0 4.632-.872 6.505-2.392 2.028-1.645 3.182-3.814 3.167-5.95-.003-.467-.065-.92-.177-1.354l-.001-.007-.012-.043c-.01-.04-.02-.08-.032-.12l-4.898-18.293 13.604-7.566 2.661 9.938c-2.096.125-4.245.974-5.972 2.375-2.027 1.644-3.18 3.813-3.166 5.948.012 1.679.741 3.173 2.054 4.207 1.137.896 2.616 1.37 4.279 1.37 2.26 0 4.632-.872 6.506-2.392 2.027-1.645 3.18-3.814 3.166-5.949-.004-.466-.065-.917-.176-1.35zm-24.388 15.007c-.906.735-2.101 1.192-3.12 1.192-.5 0-.82-.112-.953-.216l-.006-.005c-.02-.215.21-.963 1.178-1.748.906-.735 2.101-1.192 3.12-1.192.5 0 .82.112.953.217l.006.004c.02.215-.21.963-1.178 1.748zm18.012-11.887c-.906.735-2.102 1.191-3.12 1.191-.5 0-.82-.111-.953-.216l-.006-.004c-.02-.215.21-.963 1.177-1.748.906-.735 2.102-1.192 3.12-1.192.5 0 .82.112.953.216l.006.005c.02.214-.21.963-1.177 1.748zM100.377 157.62c-1.27-.728-2.895-.296-3.629.966l-12.883 22.157c-2.241-2.905-6.172-5.088-10.536-5.54-.539-.056-1.078-.085-1.604-.085-3.323 0-6.248 1.14-8.027 3.129-1.385 1.548-2.012 3.537-1.765 5.6.589 4.916 6.053 9.285 12.44 9.948.54.056 1.079.084 1.605.084 3.322 0 6.248-1.14 8.026-3.128.31-.347.58-.716.812-1.102.011-.018.025-.035.036-.053l16.498-28.372c.733-1.262.297-2.875-.973-3.603zm-20.094 29.284l-.014.024c-.066.11-.144.216-.237.32-.906 1.012-2.9 1.53-5.106 1.3-4.225-.438-7.457-3.157-7.716-5.323-.07-.577.077-1.046.46-1.475.76-.85 2.276-1.357 4.055-1.357.342 0 .697.019 1.052.056 4.225.438 7.457 3.157 7.716 5.323.052.428-.016.796-.21 1.132z" />
				<path fill="#1C1C30" fill-rule="nonzero" d="M164.63 149.876c-.454-1.338-1.96-2.071-3.363-1.638l-10.422 3.225c-1.403.434-2.171 1.87-1.717 3.21.367 1.077 1.413 1.762 2.54 1.762.273 0 .55-.04.824-.125l10.422-3.225c1.403-.434 2.171-1.87 1.717-3.21zM148.026 155.94c-.492-1.522-2.112-2.355-3.62-1.858l-.064.021c-1.508.497-2.331 2.134-1.84 3.658.395 1.224 1.52 2.002 2.73 2.002.294 0 .594-.046.89-.144l.064-.021c1.508-.497 2.331-2.134 1.84-3.657z" />
			</g>
		</g>
	</g>
</svg>
