<svg xmlns="http://www.w3.org/2000/svg" xmlns:xlink="http://www.w3.org/1999/xlink" width="375" height="370" viewBox="0 0 375 370">
	<defs>
		<filter id="prefix__b" width="115%" height="115.2%" x="-7.5%" y="-7.6%" filterUnits="objectBoundingBox">
			<feMorphology in="SourceAlpha" operator="dilate" radius="1" result="shadowSpreadOuter1" />
			<feOffset in="shadowSpreadOuter1" result="shadowOffsetOuter1" />
			<feGaussianBlur in="shadowOffsetOuter1" result="shadowBlurOuter1" stdDeviation="7.5" />
			<feColorMatrix in="shadowBlurOuter1" values="0 0 0 0 0.938738567 0 0 0 0 0.938738567 0 0 0 0 1 0 0 0 1 0" />
		</filter>
		<path id="prefix__a" d="M30 0h281c16.569 0 30 13.431 30 30v276.188c0 16.569-13.431 30-30 30H30c-16.569 0-30-13.431-30-30V30C0 13.431 13.431 0 30 0z" />
	</defs>
	<g fill="none" fill-rule="evenodd" transform="translate(17 17)">
		<mask id="prefix__c" fill="#fff">
			<use xlink:href="#prefix__a" />
		</mask>
		<use fill="#000" filter="url(#prefix__b)" xlink:href="#prefix__a" />
		<use fill="#FFF" xlink:href="#prefix__a" />
		<g mask="url(#prefix__c)">
			<g transform="translate(41 -93.195)">
				<ellipse cx="128.67" cy="128.559" fill="#F8F8FF" rx="128.186" ry="128.559" />
				<path fill="#1C1C30" fill-rule="nonzero" d="M201.319 179.493c-8.486-8.51-24.134-14.927-34.954-17.834-8.418-2.262-17.888-3.56-25.98-3.56-5.1 0-9.536.497-13.183 1.476-.917.247-1.633.965-1.879 1.885-.78 2.92-1.45 5.972-2.007 9.1-.022.092-.037.185-.049.28-2.165 12.308-2.586 25.796-1.086 37.357-6.706.433-13.848 1.607-20.42 3.373-10.82 2.908-26.466 9.323-34.953 17.834-.671.673-.934 1.655-.688 2.574.848 3.175 1.883 6.414 3.074 9.66l.005.012c4.104 11.18 10.078 22.44 16.801 31.46 7.295 9.787 18.783 21.453 32.081 21.453 1.911 0 3.814-.25 5.655-.746 8.116-2.18 14.49-8.978 18.434-19.656 3.001-8.127 4.6-18.357 4.673-29.748 1.058.157 2.129.24 3.202.24 13.297 0 24.785-11.668 32.081-21.455 8.678-11.642 16.11-27.018 19.88-41.13.246-.92-.016-1.902-.687-2.575zM122.36 288.668c-1.393.375-2.833.564-4.28.564-8.658 0-18.54-6.859-27.824-19.314-6.085-8.164-11.528-18.25-15.42-28.372 1.433-1.115 3.722-2.849 6.096-4.455 1.216-.823 1.537-2.48.716-3.7-.82-1.22-2.472-1.542-3.69-.719-1.84 1.246-3.605 2.542-5.006 3.604-.46-1.392-.888-2.779-1.28-4.154 6.623-5.968 18.99-12.052 31.464-15.403 6.41-1.722 13.384-2.853 19.888-3.235.85 4.448 1.997 8.472 3.424 12.046l.02.05c.137.343.277.682.42 1.016l.023.055c.731 1.708 1.53 3.307 2.395 4.792l.034.06.01.016c.05.085.097.173.147.257.106.178.216.347.324.52l.21.337c.15.237.302.47.455.699.074.111.149.222.224.331.158.23.316.457.477.68.067.093.135.183.202.275.174.235.349.47.526.697l.06.073c.349.444.707.87 1.072 1.284-1.6 2.016-4.054 3.23-6.664 3.23-3.032 0-5.857-1.636-7.373-4.27-.734-1.274-2.358-1.711-3.63-.975-1.271.736-1.707 2.366-.973 3.64 2.463 4.278 7.052 6.935 11.976 6.935 4.104 0 7.974-1.847 10.576-4.937.867.644 1.769 1.214 2.7 1.718l.116.064c.244.13.49.254.739.375l.207.1c.24.113.48.222.723.326l.088.04c.09 19.936-4.87 41.907-19.172 45.75zm55.508-68.662c-9.285 12.456-19.166 19.315-27.824 19.315-1.446 0-2.886-.19-4.279-.564-.258-.069-.51-.146-.761-.227l-.023-.008c-11.493-3.707-15.662-19.282-17.124-28.236-.003-.02-.008-.039-.012-.059l-.077-.478c-1.72-10.987-1.514-24.117.434-36.23 1.795-.246 4.641-.6 7.505-.8 1.464-.103 2.568-1.376 2.465-2.845-.103-1.468-1.366-2.58-2.837-2.473-2.205.155-4.371.391-6.11.608.26-1.231.538-2.447.836-3.641 2.916-.624 6.379-.939 10.323-.939 7.648 0 16.615 1.232 24.604 3.378 12.473 3.352 24.842 9.437 31.463 15.404-3.719 13.067-10.6 27.084-18.583 37.795z" />
				<path fill="#1C1C30" fill-rule="nonzero" d="M184.314 199.076c-2.485-4.232-7.116-6.861-12.085-6.861-4.97 0-9.601 2.629-12.086 6.861-.74 1.261-.3 2.874.982 3.602 1.283.728 2.923.296 3.663-.965 1.53-2.606 4.381-4.224 7.44-4.224 3.06 0 5.911 1.618 7.441 4.224.497.846 1.398 1.32 2.325 1.32.455 0 .916-.115 1.339-.355 1.282-.728 1.722-2.34.981-3.602zM145.299 184.927c-4.33-2.487-9.707-2.487-14.035 0-1.29.74-1.732 2.382-.987 3.665.745 1.284 2.393 1.724 3.684.983 2.664-1.531 5.975-1.531 8.64 0 2.666 1.53 4.321 4.384 4.321 7.445 0 1.482 1.208 2.684 2.697 2.684 1.49 0 2.697-1.202 2.697-2.684 0-4.972-2.689-9.606-7.017-12.093z" />
				<path fill="#FB2037" fill-rule="nonzero" d="M162.322 218.685c-1.04-1.016-2.727-1.016-3.767 0-2.148 2.1-5.308 2.927-8.242 2.158-2.936-.768-5.248-3.028-6.035-5.896-.38-1.389-1.84-2.212-3.262-1.84-1.42.372-2.264 1.799-1.883 3.188 1.278 4.659 5.033 8.329 9.801 9.577 1.178.309 2.378.459 3.57.459 3.632 0 7.19-1.396 9.818-3.965 1.04-1.016 1.04-2.664 0-3.68z" />
				<path fill="#1C1C30" fill-rule="nonzero" d="M101.498 237.98c-1.49 0-2.698 1.202-2.698 2.684 0 3.061-1.656 5.914-4.32 7.445-2.665 1.531-5.976 1.531-8.64 0-1.291-.74-2.94-.3-3.685.983-.745 1.283-.303 2.924.987 3.665 2.164 1.244 4.591 1.865 7.018 1.865 2.426 0 4.853-.621 7.017-1.865 4.329-2.487 7.018-7.12 7.018-12.093 0-1.482-1.208-2.684-2.697-2.684z" />
				<path fill="#FB2037" fill-rule="nonzero" d="M129.135 268.572c-3.49-3.411-8.62-4.754-13.388-3.506-4.768 1.248-8.524 4.918-9.802 9.578-.38 1.389.463 2.815 1.884 3.188.23.06.463.09.69.089 1.177 0 2.253-.767 2.572-1.93.787-2.869 3.099-5.128 6.034-5.896 2.936-.769 6.094.058 8.243 2.158 1.04 1.016 2.726 1.016 3.767 0 1.04-1.016 1.04-2.665 0-3.681z" />
				<path fill="#1C1C30" fill-rule="nonzero" d="M143.307 167.307c-.07-.01-.14-.02-.21-.028-1.541-.2-2.97.74-3.196 2.098-.225 1.357.84 2.619 2.38 2.817l.135.019c.15.021.3.031.449.031 1.36 0 2.556-.87 2.778-2.091.246-1.355-.8-2.629-2.336-2.846zM89.078 230.424c-.55-1.275-2.178-1.919-3.637-1.437l-.212.072c-1.447.505-2.152 1.94-1.575 3.207.441.966 1.501 1.554 2.622 1.554.348 0 .702-.057 1.045-.177l.114-.038c1.458-.482 2.193-1.906 1.643-3.181z" />
			</g>
		</g>
	</g>
</svg>
