<svg xmlns="http://www.w3.org/2000/svg" xmlns:xlink="http://www.w3.org/1999/xlink" width="375" height="370" viewBox="0 0 375 370">
	<defs>
		<filter id="prefix__b" width="115%" height="115.2%" x="-7.5%" y="-7.6%" filterUnits="objectBoundingBox">
			<feMorphology in="SourceAlpha" operator="dilate" radius="1" result="shadowSpreadOuter1" />
			<feOffset in="shadowSpreadOuter1" result="shadowOffsetOuter1" />
			<feGaussianBlur in="shadowOffsetOuter1" result="shadowBlurOuter1" stdDeviation="7.5" />
			<feColorMatrix in="shadowBlurOuter1" values="0 0 0 0 0.938738567 0 0 0 0 0.938738567 0 0 0 0 1 0 0 0 1 0" />
		</filter>
		<path id="prefix__a" d="M30 0h281c16.569 0 30 13.431 30 30v276.188c0 16.569-13.431 30-30 30H30c-16.569 0-30-13.431-30-30V30C0 13.431 13.431 0 30 0z" />
	</defs>
	<g fill="none" fill-rule="evenodd" transform="translate(17 17)">
		<mask id="prefix__c" fill="#fff">
			<use xlink:href="#prefix__a" />
		</mask>
		<use fill="#000" filter="url(#prefix__b)" xlink:href="#prefix__a" />
		<use fill="#FFF" xlink:href="#prefix__a" />
		<g mask="url(#prefix__c)">
			<g transform="translate(41.484 -93.195)">
				<ellipse cx="128.186" cy="128.559" fill="#F8F8FF" rx="128.186" ry="128.559" />
				<path fill="#1C1C30" fill-rule="nonzero" d="M179.186 202.635H99.683l76.363-22.25c.594-.172 1.094-.576 1.393-1.12.298-.545.37-1.186.197-1.783l-3.996-13.874c-1.596-5.542-6.727-9.413-12.476-9.413-1.211 0-2.418.173-3.59.514l-71.696 20.89c-3.316.965-6.064 3.183-7.74 6.241-1.675 3.06-2.068 6.581-1.108 9.915l3.904 13.556v55.84c0 7.193 5.818 13.044 12.968 13.044h28.001c1.288 0 2.33-1.05 2.33-2.344 0-1.294-1.042-2.343-2.33-2.343h-28c-4.582 0-8.308-3.749-8.308-8.356v-31.896H176.855v31.896c0 4.607-3.726 8.356-8.308 8.356h-28.001c-1.287 0-2.33 1.049-2.33 2.343 0 1.295 1.043 2.344 2.33 2.344h28.001c7.151 0 12.969-5.851 12.969-13.043v-56.174c0-1.294-1.043-2.343-2.33-2.343zm-41.09 21.934l9.9-17.247h12.878l-9.9 17.247h-12.879zm-18.26 0l9.9-17.247h12.878l-9.9 17.247h-12.879zm-18.26 0l9.9-17.247h12.879l-9.901 17.247h-12.878zm8.664-30.342l-16.58-16.016 12.423-3.619c.087.128.19.25.306.362l16.58 16.016-12.423 3.619c-.087-.128-.19-.25-.306-.362zm31.226-29.493l16.58 16.016-12.423 3.619c-.087-.128-.19-.25-.306-.362l-16.58-16.016 12.423-3.619c.087.128.19.25.306.362zm-17.539 5.11l16.58 16.015-12.423 3.62c-.087-.128-.19-.25-.306-.361l-16.58-16.016 12.423-3.62c.088.128.19.25.306.362zm34.945-10.633c.748-.218 1.52-.328 2.292-.328 3.688 0 6.976 2.479 8 6.03l3.347 11.622-9.349 2.724c-.088-.129-.19-.25-.307-.362l-16.578-16.015 12.595-3.67zm-76.652 24.89c1.075-1.961 2.834-3.382 4.955-4l1.369-.4c.088.129.19.25.306.362l16.58 16.017-20.575 5.994-3.348-11.622c-.615-2.132-.36-4.387.713-6.35zm3.375 23.221h20.5l-9.9 17.247h-10.6v-17.247zm70.76 17.247l9.9-17.247h10.6v17.247h-20.5z" />
				<path fill="#FB2037" fill-rule="nonzero" d="M147.618 249.195c0-.834-.453-1.604-1.188-2.02l-20.877-11.834c-.735-.417-1.641-.417-2.377 0-.735.416-1.188 1.186-1.188 2.02v23.668c0 .833.453 1.603 1.188 2.02.368.208.778.313 1.189.313.41 0 .82-.105 1.188-.314l20.877-11.833c.735-.416 1.188-1.186 1.188-2.02zm-20.877 7.793v-15.586l13.748 7.793-13.748 7.793z" />
			</g>
		</g>
		<g fill="#1C1C30" fill-rule="nonzero">
			<path d="M54.154 90.833c-1.139 0-2.067.936-2.067 2.084 0 1.147.928 2.083 2.067 2.083 1.139 0 2.066-.936 2.066-2.083 0-1.148-.927-2.084-2.066-2.084z" transform="translate(118 61)" />
		</g>
	</g>
</svg>
