<svg version="1" xmlns="http://www.w3.org/2000/svg" width="2210.667" height="2210.667" viewBox="0 0 1658.000000 1658.000000"><path d="M809.6 638.1C639.3 828 500 983.6 500 983.9c0 .5 293.5 169.9 296.1 170.9.4.2-2.9-5.2-7.4-12-28.7-43-46.7-98.3-54.3-166.8-2.1-19.7-3-74.6-1.5-97.6 8.8-134.3 61.2-228.2 149.5-268.1 40.3-18.2 94.8-24.6 138.1-16.3 38 7.4 73 25.3 105.3 53.9l9.2 8.2v-4.8c-.1-11.4-14.8-357.4-15.2-357.9-.3-.2-139.9 154.9-310.2 344.7z"/><path d="M985 623.5c-65.2 13.1-122.9 98.1-143.4 211.5-6.2 33.9-8 58.4-7.3 97.9.7 40.8 4 68.5 12.3 103.1 21.1 88.4 66.7 152.4 121.4 170.5 25.8 8.5 63 6.9 95.9-4 23.1-7.8 47.7-23.2 64.5-40.3l4.9-5 4.8 5.1c2.7 2.9 4.8 5.7 4.9 6.4 0 1.5-17.3 17.8-28.5 26.8-43.9 35.3-94.9 51.5-149.7 47.6-8.8-.7-16.2-1-16.4-.9-.1.2 48.4 28.3 107.8 62.6 59.5 34.2 108.2 62.1 108.4 62 .1-.2-27.9-679-28.6-692.3 0-.6-.6-.2-1.4.7-1.1 1.6-1.7 1.2-6.2-3.3-11.2-11.5-31.4-26-45.9-32.9-23.6-11.3-51.1-17.1-79.2-16.9-6.5 0-14.7.7-18.3 1.4z"/></svg>