<svg xmlns="http://www.w3.org/2000/svg" xmlns:xlink="http://www.w3.org/1999/xlink" width="1481" height="947" viewBox="0 0 1481 947">
	<defs>
		<path id="prefix__a" d="M0 0.365L111.634 0.365 111.634 202.371 0 202.371z" />
		<path id="prefix__c" d="M0.356 0.716L57.95 0.716 57.95 79.982 0.356 79.982z" />
		<path id="prefix__e" d="M0.394 0.378L88.551 0.378 88.551 121.917 0.394 121.917z" />
	</defs>
	<g fill="none" fill-rule="evenodd" transform="translate(-38 -133)">
		<circle cx="887" cy="514" r="514" fill="#EFEFFF" />
		<circle cx="887" cy="514" r="378" fill="#F8F8FF" />
		<circle cx="887" cy="514" r="275" fill="#FFF" />
		<g>
			<path fill="#1C1C30" d="M96.27 262.7l-10.04-3.18c-3.226-1.022-4.988-4.373-3.916-7.446l5.601-16.044c1.073-3.074 4.59-4.752 7.817-3.73l10.039 3.18c3.226 1.021 4.987 4.372 3.915 7.446l-5.6 16.045c-1.074 3.073-4.59 4.752-7.816 3.729" transform="translate(682.302 357.875)" />
			<path fill="#1C1C30" d="M180 91.784s-27.05-8.339-44.067-16.636C118.916 66.851 94.766 53 94.766 53S29.421 120.872 28 227.527c0 0 71.028-1.385 98.019 30.473" transform="translate(682.302 357.875)" />
			<path fill="#12121E" d="M179 92.32L146.294 81s-63.313 60.804-59.092 154.775L125.828 258 179 92.32z" transform="translate(682.302 357.875)" />
			<g transform="translate(682.302 357.875) translate(0 31)">
				<mask id="prefix__b" fill="#fff">
					<use xlink:href="#prefix__a" />
				</mask>
				<path fill="#12121E" d="M68.198 2.654c1.917-2.357 5.33-2.99 7.986-1.45L108.64 19.99c3.283 1.901 3.997 6.215 1.488 9.013C99.594 40.739 77.86 73.127 67.544 104.27c-10.623 32.07-17.173 75.275-18.229 92.513-.221 3.623-3.71 6.2-7.372 5.461L5.324 194.87c-2.658-.535-4.63-2.692-4.867-5.314-1.186-13.22-1.438-59.811 17.16-106.991s38.627-70.77 50.581-79.911" mask="url(#prefix__b)" />
			</g>
			<g transform="translate(682.302 357.875) translate(155)">
				<mask id="prefix__d" fill="#fff">
					<use xlink:href="#prefix__c" />
				</mask>
				<path fill="#12121E" d="M29.45 79.982s4.945-28.025-21.933-43.384c0 0-12.731-6.982-4.244-20.945C11.761 1.689 16.005-1.104 23.078 1.689c7.074 2.793 19.092 17.49 32.18 16.424C68.347 17.049 29.45 79.982 29.45 79.982" mask="url(#prefix__d)" />
			</g>
			<g transform="translate(682.302 357.875) translate(748 205)">
				<mask id="prefix__f" fill="#fff">
					<use xlink:href="#prefix__e" />
				</mask>
				<path fill="#12121E" d="M24.46 7.223s22.603 15.25 43.793 1.386c21.19-13.863 21.19-6.932 19.778-2.773-1.413 4.16-39.556 113.682-39.556 113.682s-4.238 6.932-8.476-2.772C35.761 107.04 32.835 85.54.394 81.04L24.46 7.223z" mask="url(#prefix__f)" />
			</g>
			<path fill="#1C1C30" d="M756.018 183.412L237.45 12.499c-15.31-5.046-32.064 3.065-37.23 18.023L90.534 348.18c-5.164 14.96 3.137 31.328 18.448 36.373 0 0 49.249 15.95 61.297 20.204 28.969 10.225 20.405 39.043 10.466 71.409-12.81 41.716-65.472 196.067-65.472 196.067s-8.54 15.296 9.963 22.249c18.503 6.953 89.668 26.42 89.668 26.42s17.08 5.562 21.35-8.343c4.27-13.905 56.966-174.358 68.319-200.239 8.54-19.467 18.315-60.306 54.703-50.315 36.388 9.99 268.272 93.461 268.272 93.461 15.312 5.045 32.066-3.065 37.23-18.023l109.687-317.656c5.165-14.96-3.135-31.328-18.447-36.374" transform="translate(682.302 357.875)" />
		</g>
		<path fill="#FB2037" d="M437.151 76L189 101.201 658 431z" />
		<path fill="#FFF" d="M405.934 623L625 470.715 15 405z" transform="rotate(10 320 514)" />
		<path fill="#FFF" d="M613.903 237.399L492 211 664 441z" />
		<path fill="#1C1C30" d="M567.493 531L651 483.375 434 441z" />
		<path fill="#FB2037" d="M577.05 646.291L606 585 463 648z" />
	</g>
</svg>
